<?xml version="1.0" encoding="UTF-8" standalone="no"?>
<svg
   width="540"
   height="391"
   viewBox="0 0 540 391"
   fill="none"
   version="1.1"
   id="svg63"
   sodipodi:docname="ictd-logo.svg"
   inkscape:version="1.1.2 (0a00cf5339, 2022-02-04)"
   xmlns:inkscape="http://www.inkscape.org/namespaces/inkscape"
   xmlns:sodipodi="http://sodipodi.sourceforge.net/DTD/sodipodi-0.dtd"
   xmlns="http://www.w3.org/2000/svg"
   xmlns:svg="http://www.w3.org/2000/svg">
  <defs
     id="defs67" />
  <sodipodi:namedview
     id="namedview65"
     pagecolor="#ffffff"
     bordercolor="#666666"
     borderopacity="1.0"
     inkscape:pageshadow="2"
     inkscape:pageopacity="0.0"
     inkscape:pagecheckerboard="0"
     showgrid="false"
     inkscape:zoom="2.2659835"
     inkscape:cx="327.89295"
     inkscape:cy="256.62147"
     inkscape:window-width="1850"
     inkscape:window-height="1016"
     inkscape:window-x="0"
     inkscape:window-y="0"
     inkscape:window-maximized="1"
     inkscape:current-layer="svg63" />
  <path
     d="M36.4688 116.2C31.4688 116.2 27.2688 114.6 23.8688 111.4C20.6688 108 19.0688 103.8 19.0688 98.8C19.0688 94 20.6688 90 23.8688 86.8C27.2688 83.6 31.4688 82 36.4688 82C41.2688 82 45.3688 83.6 48.7688 86.8C52.1688 90 53.8688 94 53.8688 98.8C53.8688 103.8 52.1688 108 48.7688 111.4C45.3688 114.6 41.2688 116.2 36.4688 116.2ZM23.8688 298V149.2H49.0688V298H23.8688ZM161.346 301.6C147.146 301.6 134.346 298.4 122.946 292C111.746 285.4 102.846 276.3 96.2461 264.7C89.8461 252.9 86.6461 239.2 86.6461 223.6C86.6461 208 89.8461 194.4 96.2461 182.8C102.846 171 111.746 161.9 122.946 155.5C134.346 148.9 147.146 145.6 161.346 145.6C178.946 145.6 193.746 150.2 205.746 159.4C217.946 168.6 225.646 180.9 228.846 196.3H203.046C201.046 187.1 196.146 180 188.346 175C180.546 169.8 171.446 167.2 161.046 167.2C152.646 167.2 144.746 169.3 137.346 173.5C129.946 177.7 123.946 184 119.346 192.4C114.746 200.8 112.446 211.2 112.446 223.6C112.446 236 114.746 246.4 119.346 254.8C123.946 263.2 129.946 269.6 137.346 274C144.746 278.2 152.646 280.3 161.046 280.3C171.446 280.3 180.546 277.8 188.346 272.8C196.146 267.6 201.046 260.3 203.046 250.9H228.846C225.846 265.9 218.246 278.1 206.046 287.5C193.846 296.9 178.946 301.6 161.346 301.6ZM318.738 298C305.138 298 294.438 294.7 286.638 288.1C278.838 281.5 274.938 269.6 274.938 252.4V170.5H249.138V149.2H274.938L278.238 113.5H300.138V149.2H343.938V170.5H300.138V252.4C300.138 261.8 302.038 268.2 305.838 271.6C309.638 274.8 316.338 276.4 325.938 276.4H341.538V298H318.738ZM439.352 301.6C424.552 301.6 411.552 298.2 400.352 291.4C389.352 284.6 380.752 275.3 374.552 263.5C368.552 251.7 365.552 238.3 365.552 223.3C365.552 208.3 368.652 195 374.852 183.4C381.052 171.6 389.652 162.4 400.652 155.8C411.652 149 424.652 145.6 439.652 145.6C451.852 145.6 462.652 148.1 472.052 153.1C481.452 158.1 488.752 165.1 493.952 174.1V82H519.152V298H496.352L493.952 273.4C489.152 280.6 482.252 287.1 473.252 292.9C464.252 298.7 452.952 301.6 439.352 301.6ZM442.052 279.7C452.052 279.7 460.852 277.4 468.452 272.8C476.252 268 482.252 261.4 486.452 253C490.852 244.6 493.052 234.8 493.052 223.6C493.052 212.4 490.852 202.6 486.452 194.2C482.252 185.8 476.252 179.3 468.452 174.7C460.852 169.9 452.052 167.5 442.052 167.5C432.252 167.5 423.452 169.9 415.652 174.7C408.052 179.3 402.052 185.8 397.652 194.2C393.452 202.6 391.352 212.4 391.352 223.6C391.352 234.8 393.452 244.6 397.652 253C402.052 261.4 408.052 268 415.652 272.8C423.452 277.4 432.252 279.7 442.052 279.7Z"
     fill="black"
     id="path2"
     style="fill:#ffffff" />
  <mask
     id="mask0_202_2"
     style="mask-type:alpha"
     maskUnits="userSpaceOnUse"
     x="367"
     y="181"
     width="148"
     height="85">
    <path
       d="M367.971 199.809C368.077 199.597 368.304 199.445 368.492 199.269C368.914 199.227 369.061 199.015 369.214 198.51C369.373 197.988 369.365 197.376 369.2 196.863C368.958 196.11 368.511 195.25 368.789 194.441C369.055 193.665 369.794 193.506 370.473 193.212C370.847 193.051 371.14 192.929 371.532 192.827C371.766 192.767 372.061 192.813 372.302 192.813C372.754 192.813 373.199 192.781 373.649 192.746C373.992 192.72 374.325 192.647 374.664 192.72C374.989 192.79 375.298 192.997 375.637 192.912C375.948 192.835 376.447 192.816 376.759 192.909C377.446 193.113 378.382 193.649 378.832 194.212C379.049 194.483 379.399 194.631 379.647 194.878C380.146 195.377 381.476 195.12 382.072 194.812C382.411 194.636 382.549 194.3 382.849 194.075C382.995 193.965 383.329 193.751 383.512 193.745C384.004 193.731 384.528 194.037 385.007 193.931C385.441 193.834 385.937 193.767 386.377 193.845C386.654 193.895 386.941 193.833 387.214 193.882C387.792 193.988 388.3 194.378 388.813 194.649C389.373 194.945 389.712 195.948 390.405 196.074C390.777 196.142 391.167 195.944 391.541 195.944C392.024 195.944 392.492 195.956 392.974 195.944C394.494 195.907 396.241 196.498 397.505 195.415C397.68 195.265 397.773 195.01 397.938 194.878C398.106 194.744 398.076 194.478 398.223 194.33C398.709 193.844 399.215 194.642 399.556 194.878C399.954 195.154 400.504 195.677 400.504 196.178C400.504 196.455 400.568 196.817 400.467 197.077C400.318 197.459 400.044 197.51 399.771 197.744C399.526 197.954 399.257 198.039 399.09 198.343C398.851 198.778 398.49 199.144 398.205 199.546C397.884 199.999 397.733 200.294 397.972 200.805C398.165 201.219 398.202 201.743 398.438 202.127C398.624 202.428 398.818 202.705 399.104 202.926C399.543 203.265 400.071 203.4 400.437 203.852C401.251 204.856 402.17 206.044 403.451 206.488C404.188 206.743 404.895 206.227 404.965 205.466C405.055 204.476 404.522 203.393 404.872 202.441C405.126 201.751 406.091 201.275 406.782 201.275C407.2 201.275 407.597 201.466 408.019 201.475C408.461 201.485 408.863 201.527 409.3 201.479C409.753 201.428 410.424 201.456 410.832 201.66C411.259 201.873 411.933 201.977 412.265 202.308C412.504 202.547 412.583 202.911 412.731 203.208C413.077 203.9 413.098 204.601 413.098 205.355C413.098 205.77 413.247 206.161 413.231 206.591C413.22 206.894 412.818 207.28 412.591 207.443C411.902 207.934 411.08 208.201 410.284 208.457C409.797 208.614 409.152 208.567 408.648 208.605C408.046 208.652 408.17 210.034 407.993 210.416C407.716 211.011 407.45 211.321 406.997 211.774C406.703 212.068 406.466 212.344 406.234 212.685C405.876 213.213 404.702 213.595 404.702 214.303C404.702 214.751 404.675 215.34 404.487 215.735C404.181 216.382 403.488 216.416 403.036 216.868L403.025 216.879C402.758 217.146 402.636 217.268 402.636 217.679C402.636 218.168 402.627 218.89 402.836 219.334C403.113 219.92 403.576 220.355 403.873 220.907C404.079 221.29 403.67 222.262 403.136 221.966C402.916 221.843 402.728 221.824 402.532 221.629C402.255 221.351 401.922 221.042 401.57 220.866C400.786 220.474 399.934 220.666 399.097 220.666C398.506 220.666 397.335 220.707 396.972 221.251C396.514 221.938 396.315 222.734 396.443 223.565C396.606 224.626 397.496 224.465 398.349 224.465C398.798 224.465 399.164 224.551 399.556 224.783C399.868 224.967 399.861 225.057 400.008 225.364C400.189 225.743 400.285 226.219 400.507 226.567C400.718 226.896 401.026 227.117 401.333 227.345C402.162 227.96 402.815 228.782 403.584 229.462C403.957 229.793 404.357 229.96 404.65 230.329C404.905 230.65 405.267 230.662 405.638 230.662C405.982 230.662 406.147 230.449 406.442 230.395C406.861 230.319 407.272 230.239 407.7 230.262C408.88 230.324 410.33 230.422 411.328 231.143C411.651 231.376 412.004 231.64 412.246 231.957C412.549 232.353 412.944 232.261 413.416 232.261C414.305 232.261 415.191 232.272 416.078 232.198C416.571 232.157 417.047 231.946 417.548 232.113C418.337 232.376 419.059 232.516 419.717 233.087C420.037 233.364 420.369 233.528 420.643 233.86L420.67 233.894C420.897 234.169 421.187 234.521 421.331 234.838C421.514 235.24 421.743 235.558 422.027 235.893C422.157 236.046 422.483 236.258 422.56 236.433C422.733 236.823 422.745 237.407 422.76 237.829C422.778 238.329 422.846 238.832 422.879 239.332C422.898 239.629 422.979 240.103 422.879 240.391C422.751 240.757 422.595 241.106 422.494 241.486C422.353 242.014 421.907 242.406 421.642 242.856C421.166 243.665 421.228 244.563 421.12 245.473C421.045 246.106 420.961 246.689 420.961 247.324C420.961 247.613 420.854 247.8 420.694 248.039C420.448 248.408 420.065 248.853 419.665 249.053C419.36 249.206 418.785 249.151 418.436 249.183C417.808 249.24 417.169 249.311 416.6 249.601C415.614 250.104 415.115 251.094 414.594 252.022C414.374 252.413 414.223 252.687 414.231 253.133C414.236 253.473 414.297 253.808 414.297 254.151C414.297 254.674 413.648 255.105 413.327 255.502C412.665 256.322 411.945 257.109 411.24 257.894C411.04 258.116 410.803 258.307 410.625 258.553C410.415 258.841 410.055 259.092 409.796 259.352C409.647 259.501 409.223 259.686 409.152 259.863C408.538 261.397 407.634 263.457 409.352 264.579C409.759 264.846 410.334 264.897 410.632 265.324C411.137 266.044 410.078 265.979 409.64 265.979C409.365 265.979 408.999 266.045 408.741 265.945C408.35 265.795 407.933 265.884 407.538 265.749C406.901 265.533 406.412 265.064 405.968 264.583C405.592 264.176 405.173 263.825 404.954 263.313C404.817 262.994 404.843 262.509 404.835 262.166C404.821 261.516 404.732 260.859 404.706 260.207C404.682 259.637 404.683 259.083 404.631 258.516C404.605 258.221 404.56 257.948 404.569 257.649C404.58 257.264 404.874 256.664 405.202 256.446C405.363 256.339 405.586 256.062 405.635 255.88C405.721 255.555 405.948 255.44 406.02 255.117C406.11 254.711 406.035 254.219 406.035 253.807C406.035 253.24 406.116 252.685 406.101 252.118C406.063 250.645 406.168 249.171 406.168 247.691C406.168 247.005 406.194 246.192 405.901 245.551C405.684 245.076 405.456 244.654 405.057 244.292C404.608 243.885 404.168 243.321 403.632 243.026C402.984 242.67 402.332 242.003 402.303 241.205C402.287 240.763 402.214 240.339 402.184 239.894C402.138 239.197 402.236 238.474 402.236 237.77C402.236 237.025 401.996 235.668 402.436 235.008C402.573 234.803 402.807 234.765 402.969 234.593C403.132 234.421 403.103 234.178 403.103 233.96C403.103 233.679 402.991 233.201 402.873 232.931C402.661 232.446 402.325 232.122 401.97 231.713C401.145 230.764 400.269 229.875 399.471 228.9C399.108 228.457 398.731 228.529 398.201 228.529C397.449 228.529 396.527 228.746 395.906 228.263C395.477 227.929 395.01 227.529 394.825 227.012C394.647 226.513 394.257 226.148 394.007 225.697C393.686 225.12 393.625 224.65 393.759 224.013C393.862 223.522 393.552 223.097 393.374 222.651C393.174 222.15 393.118 221.673 392.641 221.366C392.154 221.053 391.802 220.574 391.249 220.337C391.086 220.267 390.988 220.088 390.867 219.967C390.677 219.776 390.445 219.611 390.227 219.452C389.751 219.105 389.57 218.613 389.209 218.171C389.091 218.027 388.398 217.21 388.191 217.601C388.04 217.887 388.421 218.446 388.609 218.634C388.78 218.805 388.884 219.094 389.013 219.297C389.131 219.483 389.353 219.644 389.509 219.8C389.72 220.011 389.767 220.313 389.975 220.533C390.163 220.731 390.348 220.913 390.538 221.103C390.756 221.321 391.269 222.071 390.812 222.332C390.491 222.516 390.222 222.604 389.842 222.414C389.502 222.244 389.237 221.75 388.876 221.67C388.346 221.552 388.187 221.163 387.843 220.8C387.365 220.296 386.797 219.949 386.34 219.4C385.899 218.871 385.487 218.413 385.163 217.801C384.963 217.425 384.932 216.918 384.844 216.502C384.677 215.706 384.578 215.033 384.578 214.217C384.578 213.357 384.711 212.528 384.711 211.67C384.711 210.733 384.778 209.799 384.778 208.868C384.778 208.309 384.711 207.75 384.711 207.206C384.711 206.644 384.248 206.082 383.852 205.714C383.658 205.533 383.618 205.18 383.408 204.97C383.184 204.746 382.934 204.563 382.712 204.341C382.428 204.057 382.147 203.77 381.861 203.489C381.587 203.222 380.962 202.896 380.85 202.504C380.785 202.277 380.426 202.133 380.28 201.938L380.272 201.928C380.136 201.746 379.856 201.372 379.662 201.29C379.136 201.068 378.638 200.409 378.014 200.409C377.535 200.409 377.044 200.203 376.548 200.279C375.738 200.404 374.832 200.512 374.064 200.824C373.659 200.988 373.335 201.096 372.983 201.357C372.621 201.626 372.363 201.962 372.047 202.279C371.626 202.699 371.221 203.117 370.718 203.441C370.521 203.567 370.293 203.651 370.118 203.807C369.702 204.177 369.043 203.599 368.752 203.308C368.305 202.861 367.725 202.611 367.282 202.142C366.87 201.705 366.974 201.118 367.186 200.642C367.352 200.268 367.797 200.156 367.971 199.809Z"
       fill="#00E425"
       id="path4" />
    <path
       d="M384.645 190.214C384.043 190.289 383.894 190.851 383.862 191.357C383.842 191.588 383.916 192.132 384.145 192.309C384.533 192.611 385.161 192.746 385.644 192.746C386.138 192.746 386.602 192.738 387.077 192.58C387.248 192.523 387.562 192.327 387.739 192.361C387.978 192.408 388.219 192.446 388.458 192.494C388.978 192.601 389.722 193.036 389.924 193.561C390.08 193.968 390.519 194.212 390.942 194.212C391.464 194.212 391.926 194.412 392.441 194.412C393.117 194.412 393.769 194.517 394.37 194.179C395.022 193.812 394.773 193.1 394.773 192.513C394.773 192.225 394.108 191.71 393.84 191.68C393.692 191.663 393.41 191.456 393.274 191.38C393.08 191.272 392.845 191.272 392.626 191.28C391.55 191.32 390.099 191.278 389.272 190.451C388.911 190.09 388.216 189.984 387.725 189.947C387.098 189.901 386.327 189.636 385.711 189.896C385.557 189.96 385.299 190.081 385.144 190.081C384.947 190.081 384.811 190.193 384.645 190.214Z"
       fill="#00E425"
       id="path6" />
    <path
       d="M392.841 187.348C392.502 187.707 392.494 188.474 392.637 188.934C392.722 189.332 392.781 189.507 393.241 189.762C393.384 189.842 393.525 189.931 393.67 190.014C393.769 190.07 393.843 190.273 393.974 190.28C394.265 190.298 394.615 190.294 394.84 190.081C395.185 189.754 395.406 189.216 395.788 188.948C396.265 188.612 396.609 188.135 397.039 187.748C397.356 187.463 397.67 187.184 397.972 186.882C398.208 186.645 398.19 186.408 398.172 186.082C398.15 185.697 397.791 185.882 397.572 185.882C397.162 185.882 396.742 185.949 396.321 185.949C395.814 185.949 395.109 185.737 394.64 185.934C394.29 186.082 394.073 186.198 393.84 186.534C393.587 186.9 393.134 187.038 392.841 187.348Z"
       fill="#00E425"
       id="path8" />
    <path
       d="M395.51 191.18C395.441 191.491 395.57 192.179 395.76 192.243C395.855 192.274 396.316 192.413 396.505 192.413C396.935 192.413 397.311 191.968 397.453 191.598C397.634 191.127 398.067 190.752 398.356 190.347C398.543 190.086 398.564 189.534 398.405 189.247C398.199 188.878 397.737 188.982 397.472 189.247C397.104 189.615 396.704 189.882 396.339 190.247C396.053 190.533 395.602 190.766 395.51 191.18Z"
       fill="#00E425"
       id="path10" />
    <path
       d="M400.888 199.889C400.592 199.185 401.232 198.575 401.81 198.222C402.086 198.404 402.544 199.054 402.575 199.193C402.617 199.385 402.683 199.511 402.683 199.734C402.683 199.893 402.686 200.029 402.64 200.18C402.514 200.587 402.71 200.788 402.265 201.028C401.937 201.204 401.688 200.98 401.402 200.805C400.98 200.547 401.047 200.266 400.888 199.889Z"
       fill="#00E425"
       id="path12" />
    <path
       d="M399.619 192.871C399.634 193.142 400.063 193.54 400.288 193.762C400.443 193.952 400.93 194.364 401.179 194.542C401.602 194.844 402.165 194.66 402.627 194.594C403.197 194.513 403.603 194.487 404.184 194.622C404.483 194.692 404.55 194.813 404.744 195.055C404.851 195.189 405.074 195.356 405.134 195.519C405.42 196.306 405.198 197.217 405.443 198.023C405.603 198.549 405.894 199.076 406.303 199.44C406.538 199.649 407.007 199.843 407.139 200.14C407.223 200.329 407.392 200.621 407.557 200.749C407.733 200.886 408.107 200.722 408.281 200.669C408.561 200.583 408.746 200.283 409.005 200.167C409.256 200.056 409.372 199.831 409.618 199.722C409.894 199.599 409.868 199.302 409.868 199.053C409.868 198.62 409.9 198.104 409.621 197.744C409.434 197.504 409.373 197.234 409.144 196.992C409.02 196.861 409.078 196.522 409.157 196.38C409.297 196.126 409.701 195.974 409.701 195.656C409.701 195.394 409.687 195.189 409.602 194.944C409.511 194.68 409.348 194.442 409.157 194.251C408.775 193.869 408.588 193.4 408.086 193.149C407.73 192.971 407.515 192.759 407.25 192.481C406.868 192.077 406.501 191.724 406.068 191.367C405.629 191.004 405.31 190.81 404.744 190.81H403.364C402.951 190.81 402.52 190.835 402.113 190.909C401.792 190.967 401.358 190.939 401.067 191.1C400.506 191.412 400.115 191.874 399.675 192.314C399.494 192.494 399.606 192.63 399.619 192.871Z"
       fill="#00E425"
       id="path14" />
    <path
       d="M398.895 187.968C398.895 188.627 399.391 189.413 399.953 189.695C400.095 189.819 400.568 190.085 400.817 190.085C401.252 190.085 401.607 190.363 402.042 190.363C402.49 190.363 402.904 190.025 403.296 189.819C403.692 189.61 403.877 189.121 404.063 188.748C404.314 188.245 404.354 187.883 404.354 187.328C404.354 187.107 404.328 186.911 404.437 186.715C404.568 186.479 404.801 186.544 404.994 186.436C405.35 186.239 405.875 186.441 406.248 186.285C406.879 186.019 407.358 185.34 407.82 184.861C408.019 184.654 408.344 184.43 408.25 184.1C408.207 183.951 407.98 183.745 407.835 183.707C407.503 183.62 407.151 183.623 406.808 183.623C406.455 183.623 406.096 183.498 405.746 183.459C405.336 183.414 404.884 183.512 404.465 183.512C403.939 183.512 403.418 183.547 402.893 183.568C402.451 183.585 401.877 183.918 401.724 184.36C401.57 184.803 401.262 185.215 400.789 185.35C400.168 185.528 399.699 186.055 399.316 186.548C399.003 186.951 398.895 187.462 398.895 187.968Z"
       fill="#00E425"
       id="path16" />
    <path
       d="M407.417 187.049C407.417 187.764 407.656 188.114 408.253 188.47C408.562 188.675 409.109 188.804 409.478 188.804C409.761 188.804 409.994 188.793 410.258 188.68C410.665 188.506 411.184 188.565 411.595 188.692C411.846 188.77 412.2 188.806 412.418 188.955C412.681 189.135 412.908 189.396 413.198 189.528C413.597 189.709 414.023 189.999 414.324 190.308C414.449 190.435 414.633 190.553 414.727 190.704C414.838 190.884 414.903 191.09 415.015 191.27C415.141 191.474 415.269 191.697 415.414 191.886C415.58 192.102 415.65 192.417 415.745 192.672C415.877 193.028 415.86 193.192 415.773 193.569C415.712 193.832 415.729 194.12 415.63 194.374C415.552 194.576 415.447 194.775 415.395 194.987C415.333 195.242 415.252 195.65 415.395 195.878C415.478 196.01 415.693 196.035 415.776 196.187C415.869 196.359 416.084 196.515 416.218 196.658C416.378 196.827 416.651 197.133 416.664 197.382C416.678 197.64 416.664 197.903 416.664 198.162C416.664 198.482 416.599 199.008 416.775 199.288C417.295 200.113 418.112 200.579 418.892 201.17C419.558 201.674 420.175 202.415 421.108 202.104C421.423 201.999 421.554 201.815 421.733 201.547C421.981 201.175 421.824 200.694 421.968 200.291C422.085 199.962 422.123 199.738 422.123 199.387C422.123 199.02 422.261 198.914 422.414 198.607C422.539 198.357 422.702 198.241 422.903 198.05C423.143 197.823 423.312 197.576 423.559 197.339C423.786 197.12 424.013 196.905 424.212 196.655C424.41 196.405 424.538 196.098 424.852 195.989C425.247 195.853 425.61 195.822 426.022 195.822C426.798 195.822 427.783 195.989 428.46 195.488C428.725 195.292 428.927 194.717 429.073 194.43C429.321 193.943 429.543 193.439 429.63 192.895C429.725 192.304 429.506 191.73 429.59 191.143C429.643 190.771 429.931 190.392 430.057 190.032C430.148 189.773 430.088 189.413 430.088 189.138C430.088 188.853 429.975 188.578 429.837 188.33C429.69 188.065 429.248 187.816 429.339 187.492C429.451 187.093 429.499 186.791 429.723 186.44C429.947 186.088 430.235 185.938 430.596 185.751L430.617 185.74C431.051 185.515 431.345 185.329 431.62 184.933C431.75 184.744 432.036 184.401 431.898 184.153C431.764 183.911 431.642 183.88 431.391 183.76C430.875 183.513 430.478 183.142 429.859 183.181C429.232 183.22 428.601 183.349 427.968 183.286C427.681 183.257 427.386 183.16 427.123 183.042C426.904 182.943 426.507 182.821 426.331 182.646C425.863 182.177 425.234 181.636 424.543 181.51C423.808 181.376 423.017 181.618 422.284 181.618H419.901C419.204 181.618 418.999 182.403 418.586 182.816C418.056 183.345 417.115 183.456 416.385 183.456C415.659 183.456 414.988 183.234 414.266 183.234C413.853 183.234 413.431 183.108 413.019 183.206C412.739 183.272 412.576 183.498 412.403 183.71C412.061 184.128 411.686 184.498 411.323 184.902C411.041 185.215 410.872 185.557 410.425 185.685C410.198 185.75 409.957 185.757 409.726 185.799C409.291 185.878 408.864 185.961 408.423 186.016C407.813 186.092 407.417 186.416 407.417 187.049Z"
       fill="#00E425"
       id="path18" />
    <path
       d="M429.228 196.602C428.916 196.715 428.321 197.4 428.226 197.717C428.131 197.906 428.256 198.254 428.349 198.44C428.529 198.799 428.719 199.029 429.141 199.053C429.276 199.06 429.507 199.167 429.615 199.251C429.794 199.391 429.844 199.396 430.101 199.387C430.607 199.369 431.234 198.865 431.509 198.468C431.963 197.811 431.2 196.792 430.59 196.574C430.196 196.433 429.615 196.461 429.228 196.602Z"
       fill="#00E425"
       id="path20" />
    <path
       d="M434.572 204.456C434.21 204.456 433.943 204.623 433.763 204.963C433.627 205.168 433.766 205.456 433.666 205.681C433.569 205.9 433.679 206.321 433.777 206.517C433.928 206.82 434.138 206.923 434.433 206.907C434.726 206.891 434.842 206.528 434.959 206.294C435.09 206.032 435.121 205.748 435.241 205.483C435.366 205.208 435.329 204.965 435.185 204.707C435.069 204.497 434.804 204.456 434.572 204.456Z"
       fill="#00E425"
       id="path22" />
    <path
       d="M435.739 201.727C435.826 201.552 435.894 201.403 436.077 201.352C436.329 201.492 436.425 201.734 436.491 202.033C436.578 202.424 436.508 202.562 436.968 202.562C437.992 202.562 437.143 203.81 437.357 204.366C437.502 204.743 437.659 204.893 438.026 205.097C438.42 205.316 438.499 205.492 438.499 205.932C438.499 206.192 438.388 206.449 438.208 206.641C438.078 206.781 437.838 207.124 437.633 207.183C437.294 207.279 436.973 207.227 436.636 207.381C436.317 207.526 436.086 207.932 435.714 207.91C435.525 207.899 435.587 207.192 435.671 207.087C435.907 206.792 436.18 206.512 436.438 206.239C436.67 205.994 436.543 205.5 436.426 205.236C436.349 205.063 436.372 204.838 436.33 204.651C436.29 204.469 436.223 204.3 436.216 204.11C436.207 203.886 435.867 203.749 435.745 203.593C435.655 203.477 435.591 203.358 435.535 203.231C435.415 202.961 435.419 202.647 435.436 202.34C435.447 202.143 435.652 201.9 435.739 201.727Z"
       fill="#00E425"
       id="path24" />
    <path
       fill-rule="evenodd"
       clip-rule="evenodd"
       d="M440.938 202.376C440.923 202.368 440.909 202.359 440.894 202.351C440.861 202.333 440.825 202.315 440.788 202.296C440.674 202.24 440.553 202.179 440.477 202.085C440.203 201.751 440.237 201.172 440.266 200.69C440.274 200.552 440.282 200.423 440.282 200.309C440.282 199.912 440.367 199.548 440.504 199.176C440.543 199.072 440.558 198.96 440.574 198.849C440.589 198.737 440.605 198.625 440.644 198.524C440.671 198.452 440.676 198.38 440.682 198.309C440.688 198.222 440.694 198.136 440.74 198.05C440.819 197.899 440.96 197.796 441.098 197.695C441.153 197.655 441.207 197.615 441.256 197.574C441.534 197.338 441.746 197.066 441.961 196.791C442.083 196.634 442.206 196.476 442.343 196.323C442.611 196.023 442.916 195.742 443.222 195.46C443.529 195.176 443.838 194.891 444.113 194.584C444.187 194.502 444.247 194.41 444.307 194.319C444.392 194.191 444.476 194.062 444.598 193.959C444.8 193.789 445.029 193.625 445.251 193.483C445.598 193.26 445.985 193.052 446.396 193.037C446.631 193.028 446.86 192.936 447.091 192.843C447.303 192.758 447.516 192.672 447.736 192.65C448.111 192.613 448.605 192.602 448.946 192.7C449.087 192.74 449.229 192.749 449.366 192.758C449.661 192.777 449.932 192.794 450.113 193.12C450.258 193.381 450.381 193.413 450.629 193.477C450.667 193.487 450.709 193.498 450.754 193.51C451.056 193.594 451.36 193.618 451.665 193.641C451.839 193.655 452.014 193.668 452.189 193.693C452.245 193.701 452.312 193.708 452.386 193.717C452.749 193.757 453.285 193.817 453.495 194.027C453.739 194.271 453.89 194.558 454.04 194.875C454.074 194.947 454.114 195.022 454.156 195.1C454.286 195.345 454.43 195.615 454.43 195.865C454.43 196.339 453.942 196.356 453.495 196.372C453.258 196.38 453.033 196.387 452.898 196.463C452.639 196.607 452.911 196.904 453.062 197.068C453.084 197.092 453.103 197.114 453.118 197.131C453.397 197.461 453.778 197.575 454.188 197.608C454.307 197.617 454.425 197.629 454.544 197.64C455.251 197.71 455.958 197.779 456.59 197.382C456.701 197.311 456.814 197.236 456.928 197.159C457.132 197.022 457.34 196.883 457.549 196.769C457.709 196.682 457.818 196.546 457.927 196.409C458.007 196.31 458.087 196.21 458.187 196.128C458.357 195.989 458.519 195.895 458.731 195.834C459.184 195.705 459.61 195.808 460.048 195.914C460.233 195.959 460.42 196.004 460.613 196.032C461.126 196.108 461.687 196.052 462.202 196C462.228 195.997 462.255 195.995 462.281 195.992C462.557 195.965 462.788 195.928 463.051 195.834C463.058 195.832 463.066 195.829 463.073 195.827C463.212 195.777 463.397 195.711 463.537 195.711C464.186 195.711 464.553 195.179 464.878 194.708C464.905 194.669 464.931 194.631 464.958 194.593C465.009 194.52 465.058 194.434 465.109 194.346C465.264 194.077 465.434 193.782 465.74 193.705C465.846 193.679 465.936 193.627 466.027 193.575C466.134 193.513 466.243 193.451 466.378 193.43C466.594 193.397 466.799 193.371 467.018 193.371C467.409 193.371 467.807 193.415 468.206 193.459C468.838 193.528 469.473 193.598 470.082 193.495C470.701 193.39 471.217 193.123 471.761 192.841C471.814 192.813 471.867 192.786 471.92 192.758C472.326 192.55 472.582 192.173 472.836 191.798C472.993 191.568 473.148 191.339 473.338 191.149C473.825 190.661 474.331 190.207 474.872 189.781C474.962 189.711 475.047 189.634 475.131 189.557C475.244 189.455 475.357 189.352 475.485 189.262C475.634 189.157 475.814 189.089 475.992 189.021C476.106 188.978 476.218 188.935 476.321 188.884C476.435 188.827 476.544 188.756 476.652 188.686C476.905 188.522 477.157 188.358 477.49 188.358C477.75 188.358 478.009 188.33 478.269 188.302C478.53 188.274 478.791 188.247 479.053 188.247C479.984 188.247 480.903 188.171 481.829 188.096L481.878 188.092C481.928 188.088 481.98 188.083 482.035 188.078C482.52 188.033 483.19 187.971 483.562 188.302C483.686 188.413 483.76 188.583 483.833 188.753C483.874 188.847 483.915 188.942 483.964 189.026C484.05 189.172 484.2 189.324 484.336 189.463C484.377 189.505 484.417 189.545 484.453 189.583C484.482 189.614 484.521 189.665 484.563 189.721C484.663 189.853 484.787 190.016 484.874 190.032C485.074 190.068 485.208 190.171 485.348 190.277C485.425 190.336 485.503 190.396 485.595 190.447C485.695 190.502 485.802 190.516 485.909 190.529C485.986 190.539 486.062 190.549 486.137 190.574C486.316 190.634 486.488 190.715 486.659 190.796C486.874 190.898 487.088 191 487.319 191.059C487.857 191.198 488.43 191.126 488.994 191.055C489.25 191.023 489.503 190.991 489.751 190.979C490.201 190.957 490.655 190.963 491.108 190.97C491.323 190.973 491.537 190.976 491.75 190.976C492.27 190.976 492.785 191.473 493.019 191.923C493.268 192.403 493.668 192.519 494.142 192.657C494.226 192.681 494.311 192.706 494.399 192.734C494.868 192.882 495.385 192.91 495.895 192.938C496.19 192.954 496.483 192.97 496.763 193.009C497.182 193.067 497.597 192.996 498.009 192.925C498.033 192.921 498.057 192.917 498.082 192.913C498.823 192.787 499.568 192.79 500.312 192.793C500.829 192.795 501.347 192.797 501.863 192.755C502.152 192.732 502.425 192.649 502.699 192.566C503.023 192.467 503.348 192.368 503.701 192.368H503.712C503.959 192.368 504.185 192.368 504.422 192.421C504.683 192.479 504.961 192.541 505.202 192.675C505.503 192.842 505.603 193.048 505.747 193.345C505.769 193.389 505.791 193.435 505.815 193.483C505.832 193.516 505.849 193.554 505.866 193.594C505.942 193.765 506.035 193.973 506.202 194.033C506.493 194.139 506.843 194.181 507.187 194.222C507.41 194.249 507.63 194.275 507.829 194.318C508.28 194.416 508.693 194.384 509.114 194.351C509.359 194.332 509.606 194.312 509.866 194.318C509.963 194.32 510.057 194.333 510.15 194.345C510.33 194.369 510.507 194.393 510.695 194.34C511.309 194.167 511.964 194.031 512.607 194.108C513.033 194.158 513.468 194.318 513.684 194.708C513.714 194.762 513.745 194.816 513.774 194.868C514 195.267 514.198 195.615 514.198 196.091C514.198 196.233 514.204 196.385 514.21 196.544C514.233 197.119 514.26 197.768 514.006 198.239C513.865 198.501 513.552 198.674 513.25 198.841C513.078 198.937 512.91 199.03 512.781 199.136C512.538 199.335 512.34 199.532 512.125 199.758C512.054 199.832 512.002 199.93 511.949 200.029C511.871 200.175 511.792 200.322 511.654 200.396C511.22 200.627 510.797 200.762 510.299 200.721C509.882 200.686 509.563 200.692 509.157 200.783C508.665 200.892 508.56 201.528 508.513 201.949C508.501 202.058 508.468 202.166 508.435 202.274C508.406 202.369 508.377 202.465 508.362 202.562C508.314 202.865 508.326 203.156 508.338 203.452C508.344 203.587 508.349 203.723 508.349 203.862C508.349 204.557 508.401 205.285 508.56 205.96C508.657 206.371 508.433 206.631 508.157 206.907C508.075 206.989 507.999 207.085 507.924 207.181C507.759 207.391 507.59 207.604 507.334 207.699C507.139 207.771 506.935 207.931 506.79 208.076C506.73 208.136 506.695 208.213 506.661 208.288C506.62 208.377 506.581 208.465 506.499 208.522L506.488 208.529C506.232 208.707 506.011 208.86 505.703 208.633C505.666 208.606 505.628 208.578 505.589 208.55C505.186 208.258 504.729 207.927 504.729 207.396C504.729 206.993 504.701 206.593 504.673 206.191C504.645 205.789 504.617 205.385 504.617 204.979C504.617 203.899 505.272 203.244 505.998 202.518L506.004 202.512C506.247 202.269 506.489 202.023 506.706 201.757C506.76 201.692 506.808 201.62 506.856 201.55C506.907 201.475 506.957 201.401 507.012 201.336C507.443 200.83 506.771 200.557 506.356 200.557C506.332 200.557 506.307 200.557 506.282 200.557C505.991 200.556 505.68 200.555 505.403 200.643C505.284 200.681 505.169 200.729 505.054 200.776C504.911 200.835 504.768 200.894 504.617 200.934C504.58 200.944 504.535 200.954 504.485 200.964C504.321 200.998 504.113 201.042 504.035 201.142C503.969 201.226 503.912 201.319 503.855 201.412C503.765 201.559 503.674 201.706 503.546 201.825C503.389 201.972 503.006 202.053 502.791 202.061C502.169 202.084 501.543 202.117 500.922 202.172C500.359 202.222 499.807 202.228 499.242 202.228C499.105 202.228 498.939 202.17 498.768 202.11C498.493 202.014 498.204 201.912 497.992 202.036C497.844 202.122 497.767 202.307 497.696 202.476C497.668 202.542 497.641 202.606 497.611 202.661C497.513 202.842 497.45 203.042 497.387 203.241C497.356 203.34 497.325 203.44 497.289 203.537L497.278 203.566C497.207 203.76 497.153 203.905 497.153 204.122C497.153 204.362 497.321 204.521 497.487 204.679C497.563 204.751 497.638 204.822 497.698 204.901C497.804 205.043 497.897 205.203 497.99 205.363C498.052 205.47 498.114 205.577 498.181 205.678C498.356 205.947 498.34 206.354 498.327 206.681C498.325 206.716 498.324 206.75 498.323 206.783C498.317 206.961 498.308 207.142 498.299 207.323C498.283 207.647 498.267 207.973 498.267 208.299C498.267 208.654 498.197 208.929 498.12 209.227C498.09 209.343 498.06 209.463 498.032 209.593C497.944 210.003 497.679 210.324 497.422 210.635C497.397 210.665 497.373 210.695 497.348 210.725C497.142 210.978 496.861 211.133 496.58 211.287C496.328 211.426 496.076 211.565 495.878 211.774C495.519 212.154 494.991 212.365 494.483 212.365C494.166 212.365 493.729 212.763 493.459 213.008C493.425 213.039 493.394 213.068 493.365 213.093C493.042 213.38 492.715 213.689 493.087 214.061C493.486 214.46 493.605 214.667 493.588 215.237C493.577 215.62 493.134 215.806 492.838 215.93C492.828 215.935 492.818 215.939 492.808 215.943C492.572 216.042 492.116 215.875 491.892 215.763C491.559 215.597 491.289 215.345 491.018 215.092C490.746 214.838 490.473 214.583 490.135 214.414C489.908 214.301 489.535 214.125 489.355 214.315C489.333 214.338 489.309 214.361 489.285 214.385C489.198 214.469 489.106 214.558 489.079 214.677C489.077 214.689 489.074 214.7 489.072 214.711C489.041 214.852 489.012 214.986 488.909 215.095C488.541 215.484 488.768 215.777 489.089 216.11C489.225 216.251 489.311 216.406 489.4 216.567C489.439 216.637 489.478 216.707 489.522 216.778C489.549 216.821 489.568 216.868 489.587 216.914C489.617 216.985 489.647 217.056 489.701 217.112C489.788 217.202 489.885 217.277 489.982 217.352C490.101 217.443 490.219 217.534 490.317 217.651C490.654 218.05 490.932 218.516 490.967 219.047C490.987 219.348 490.966 219.647 490.945 219.947C490.931 220.141 490.917 220.335 490.915 220.529C490.914 220.571 490.914 220.618 490.915 220.667C490.917 220.99 490.919 221.429 490.692 221.64C490.587 221.737 490.507 221.855 490.428 221.973C490.355 222.081 490.282 222.189 490.19 222.28C490.071 222.4 489.936 222.507 489.802 222.613C489.667 222.72 489.532 222.828 489.411 222.949C489.17 223.189 488.947 223.374 488.665 223.561C488.62 223.592 488.571 223.622 488.522 223.653C488.294 223.796 488.039 223.957 487.931 224.193C487.713 224.673 487.428 224.977 486.916 225.109C486.734 225.156 486.536 225.153 486.337 225.15C486.161 225.148 485.984 225.145 485.818 225.177C485.687 225.202 485.558 225.235 485.429 225.267C485.186 225.329 484.943 225.391 484.688 225.4C484.398 225.41 484.142 225.561 483.895 225.706C483.839 225.739 483.784 225.771 483.729 225.802C483.581 225.884 483.557 226.038 483.533 226.19C483.529 226.22 483.524 226.25 483.519 226.279C483.489 226.434 483.531 226.491 483.587 226.567C483.614 226.604 483.646 226.647 483.673 226.709C483.707 226.784 483.763 226.839 483.82 226.894C483.874 226.946 483.928 226.999 483.964 227.071C483.971 227.085 483.978 227.099 483.985 227.113C484.068 227.277 484.148 227.436 484.172 227.625C484.193 227.795 484.141 227.937 484.091 228.077C484.049 228.193 484.008 228.307 484.008 228.435C484.008 228.655 483.983 229.116 483.76 229.243C483.477 229.405 483.118 229.199 482.843 229.041C482.811 229.023 482.78 229.006 482.751 228.989C482.576 228.892 482.412 228.7 482.259 228.521C482.186 228.436 482.116 228.354 482.049 228.287C481.905 228.143 481.779 227.98 481.652 227.817C481.473 227.587 481.295 227.356 481.068 227.182C480.807 226.983 480.537 226.895 480.258 226.806C480.14 226.768 480.019 226.729 479.898 226.681C479.629 226.575 479.427 226.569 479.137 226.569C478.916 226.569 478.687 226.395 478.49 226.245C478.432 226.201 478.377 226.159 478.326 226.124C478.141 225.998 477.995 225.829 477.851 225.661C477.717 225.505 477.585 225.351 477.422 225.233C477.122 225.014 476.763 224.817 476.398 224.731C476.09 224.659 475.747 224.707 475.421 224.754C475.327 224.767 475.235 224.78 475.145 224.79C474.919 224.815 474.799 224.981 474.678 225.151C474.614 225.239 474.55 225.329 474.47 225.4L474.46 225.408C474.023 225.794 473.588 226.179 473.149 226.563C472.842 226.831 472.605 227.09 472.533 227.519C472.503 227.702 472.487 227.91 472.471 228.128C472.414 228.886 472.348 229.758 471.617 230.066C471.327 230.188 470.752 229.895 470.528 229.744C470.197 229.522 469.955 229.192 469.716 228.866C469.606 228.716 469.497 228.567 469.38 228.429L469.376 228.425L469.376 228.425C469.206 228.225 468.983 227.963 468.968 227.683C468.961 227.541 468.937 227.404 468.913 227.267C468.885 227.101 468.857 226.936 468.857 226.761C468.857 226.647 468.858 226.532 468.86 226.416C468.867 225.861 468.875 225.287 468.714 224.759C468.669 224.611 468.652 224.483 468.632 224.332L468.631 224.323C468.62 224.243 468.488 224.135 468.392 224.057C468.359 224.03 468.33 224.006 468.312 223.989C468.198 223.876 468.085 223.756 467.971 223.634C467.756 223.403 467.536 223.168 467.297 222.98C467.271 222.959 467.245 222.939 467.221 222.92C466.922 222.683 466.778 222.57 466.381 222.475C465.812 222.34 465.131 222.405 464.552 222.475C464.181 222.521 463.763 222.441 463.423 222.28C463.242 222.195 463.175 222.098 463.077 221.959C463.056 221.929 463.033 221.897 463.008 221.863C462.751 221.514 462.188 221.374 461.779 221.306C461.481 221.256 461.236 221.244 460.947 221.321C460.731 221.378 460.612 221.389 460.39 221.302C460.1 221.19 459.843 220.993 459.593 220.801C459.535 220.756 459.476 220.711 459.418 220.668C459.306 220.585 459.2 220.483 459.094 220.382C458.968 220.261 458.842 220.141 458.707 220.052C458.415 219.861 458.016 219.762 457.716 219.928C457.401 220.104 457.469 220.776 457.605 221.055C457.982 221.832 458.806 222.323 459.592 222.559C459.608 222.564 459.625 222.569 459.642 222.574C459.877 222.645 460.122 222.719 460.365 222.726C460.575 222.732 460.921 222.759 461.114 222.844C461.394 222.966 461.822 223.293 461.937 223.586C462.102 224.007 462.117 224.718 462.117 225.174C462.117 225.193 462.117 225.213 462.117 225.233C462.118 225.58 462.12 226.091 461.776 226.263C461.23 226.536 460.801 226.965 460.37 227.394C460.123 227.64 459.876 227.887 459.607 228.104C459.122 228.496 458.609 228.88 458.05 229.144C457.95 229.192 457.896 229.257 457.836 229.329C457.808 229.362 457.779 229.397 457.744 229.432C457.626 229.55 457.293 229.538 457.147 229.509C456.806 229.441 456.58 229.236 456.347 229.024C456.243 228.929 456.138 228.834 456.02 228.748C455.777 228.571 455.465 228.453 455.185 228.347L455.166 228.339C454.551 228.106 454.64 227.146 454.689 226.615C454.691 226.588 454.694 226.563 454.696 226.538C454.7 226.493 454.704 226.447 454.708 226.402C454.739 226.06 454.77 225.73 454.764 225.381C454.756 224.885 454.674 224.712 454.238 224.484C453.733 224.219 453.352 223.755 453.016 223.289C452.573 222.676 452.536 222.049 452.536 221.302C452.536 221.219 452.538 221.138 452.54 221.058C452.552 220.55 452.562 220.117 452.059 219.829C450.988 219.217 450.865 221.025 450.865 221.748C450.865 222.749 451.047 223.624 451.855 224.286C451.961 224.372 452.081 224.416 452.2 224.46C452.33 224.507 452.458 224.554 452.567 224.654C452.952 225.008 453.225 225.443 453.384 225.938C453.494 226.28 453.538 226.634 453.582 226.988C453.62 227.286 453.657 227.584 453.734 227.875C453.834 228.258 454.04 228.559 454.252 228.869C454.341 228.998 454.43 229.129 454.513 229.268C454.521 229.281 454.529 229.294 454.537 229.307C454.826 229.789 455.085 230.222 455.649 230.41C456.112 230.564 456.635 230.743 457.073 230.942C457.372 231.078 457.811 230.891 458.098 230.769C458.116 230.761 458.133 230.754 458.15 230.747C458.365 230.656 458.512 230.481 458.66 230.305C458.807 230.131 458.953 229.957 459.165 229.868C459.508 229.723 459.883 229.955 460.043 230.246C460.342 230.789 460.364 231.187 460.223 231.793C460.081 232.401 459.602 233.354 459.05 233.671C458.645 233.904 458.311 234.184 457.958 234.479C457.896 234.53 457.835 234.582 457.772 234.634C457.714 234.682 457.648 234.747 457.577 234.818C457.393 235.001 457.175 235.218 456.967 235.256C456.844 235.278 456.728 235.267 456.614 235.256C456.448 235.24 456.288 235.225 456.126 235.318C455.651 235.589 455.384 235.967 455.126 236.426C455.087 236.495 455.043 236.57 454.995 236.651C454.614 237.299 454.043 238.27 454.622 238.849C454.656 238.883 454.69 238.917 454.724 238.951C455.116 239.339 455.476 239.697 455.643 240.26C455.681 240.389 455.691 240.537 455.702 240.685C455.71 240.8 455.718 240.915 455.739 241.021C455.754 241.098 455.772 241.175 455.79 241.251C455.853 241.519 455.915 241.784 455.866 242.067C455.838 242.228 455.787 242.383 455.736 242.537C455.688 242.682 455.641 242.827 455.612 242.977C455.585 243.116 455.564 243.259 455.542 243.402C455.511 243.614 455.479 243.826 455.429 244.029C455.324 244.461 455.057 244.757 454.784 245.06C454.663 245.195 454.54 245.33 454.43 245.48C454.392 245.532 454.354 245.582 454.318 245.63C454.122 245.891 453.957 246.11 453.817 246.455C453.762 246.591 453.707 246.729 453.652 246.868C453.551 247.125 453.449 247.383 453.341 247.631C453.115 248.147 453.168 248.756 453.218 249.339C453.239 249.582 453.26 249.82 453.26 250.045C453.26 250.6 452.927 250.891 452.572 251.2C452.406 251.346 452.234 251.495 452.09 251.679C451.861 251.971 451.385 252.09 450.959 252.196C450.75 252.248 450.554 252.297 450.404 252.362C449.751 252.646 449.121 252.794 448.408 252.805C448.155 252.809 447.908 252.848 447.659 252.888C447.397 252.93 447.134 252.972 446.864 252.972C446.809 252.972 446.752 252.972 446.693 252.973C446.057 252.977 445.207 252.983 444.744 252.533C444.263 252.065 443.937 251.587 443.847 250.911C443.789 250.478 443.605 250.129 443.407 249.753L443.401 249.741C443.065 249.103 443.066 248.523 443.067 247.822C443.067 247.785 443.067 247.748 443.067 247.711C443.067 247.484 443.054 247.259 443.041 247.035C443.014 246.566 442.987 246.101 443.079 245.626C443.218 244.908 443.294 244.032 443.15 243.311C443.092 243.021 443.047 242.8 442.832 242.599C442.716 242.492 442.59 242.409 442.463 242.326C442.386 242.276 442.309 242.225 442.234 242.169C441.967 241.969 441.839 241.831 441.742 241.497C441.642 241.151 441.568 240.795 441.495 240.44C441.424 240.095 441.352 239.75 441.256 239.412C441.005 238.527 440.846 237.538 440.993 236.62C441.127 235.791 441.173 234.94 441.173 234.102C441.173 233.535 440.796 233.127 440.429 232.73C440.32 232.612 440.212 232.495 440.114 232.375C439.867 232.069 439.436 231.99 439.05 231.92C438.967 231.905 438.885 231.89 438.809 231.873C438.514 231.81 438.312 231.976 438.103 232.147C438.079 232.167 438.054 232.188 438.029 232.208C437.92 232.294 437.803 232.359 437.685 232.425C437.618 232.463 437.55 232.5 437.484 232.542C437.346 232.629 437.269 232.748 437.189 232.874C437.161 232.917 437.132 232.962 437.1 233.006C436.524 233.807 435.45 233.445 434.684 233.173C434.436 233.085 434.188 233.067 433.947 233.049C433.561 233.019 433.191 232.992 432.864 232.684C432.719 232.548 432.573 232.414 432.427 232.281C432.044 231.931 431.662 231.581 431.314 231.193C431.274 231.149 431.235 231.105 431.196 231.061C430.778 230.594 430.368 230.136 429.924 229.692C429.426 229.193 429.056 228.643 428.931 227.931C428.828 227.344 428.859 226.745 428.889 226.149C428.904 225.864 428.918 225.58 428.918 225.298C428.918 224.59 429.072 223.878 429.253 223.196C429.387 222.69 429.797 222.486 430.217 222.277C430.435 222.168 430.657 222.058 430.843 221.903C430.886 221.868 430.927 221.834 430.968 221.8C431.245 221.573 431.481 221.381 431.679 221.049C431.954 220.586 432.201 220.099 432.329 219.576C432.351 219.484 432.371 219.389 432.391 219.292C432.479 218.867 432.573 218.419 432.904 218.14C433.365 217.752 433.777 217.61 434.359 217.533C434.495 217.515 434.644 217.501 434.8 217.485C435.577 217.407 436.524 217.313 436.983 216.735C437.375 216.242 437.773 215.905 438.375 215.664C438.442 215.638 438.501 215.599 438.56 215.56C438.658 215.495 438.756 215.431 438.883 215.429C439.206 215.423 439.528 215.413 439.851 215.403C440.333 215.388 440.816 215.373 441.3 215.373C442.039 215.373 442.025 216.029 442.012 216.623C442.01 216.7 442.008 216.776 442.008 216.849C442.008 216.894 442.007 216.946 442.006 217.005C441.997 217.382 441.983 217.999 442.256 218.202C442.499 218.382 442.865 218.467 443.199 218.545C443.322 218.574 443.44 218.601 443.546 218.632C444.401 218.88 445.281 218.943 446.102 218.545C446.33 218.435 446.512 218.227 446.693 218.022C446.806 217.893 446.918 217.765 447.04 217.663C447.298 217.447 447.523 217.267 447.869 217.267C447.906 217.267 447.943 217.266 447.98 217.265C448.088 217.263 448.198 217.26 448.303 217.28C448.382 217.295 448.447 217.34 448.511 217.384C448.578 217.431 448.643 217.476 448.724 217.487C448.963 217.519 449.199 217.568 449.429 217.645C449.681 217.729 449.913 217.858 450.145 217.987C450.427 218.144 450.71 218.302 451.032 218.381C451.552 218.509 452.331 218.527 452.759 218.189C453.329 217.74 453.173 216.783 452.62 216.376C452.08 215.978 451.618 215.981 451 215.985C450.936 215.986 450.871 215.986 450.803 215.986C450.763 215.986 450.72 215.987 450.675 215.987C450.208 215.993 449.528 216.003 449.528 215.395C449.528 214.813 449.925 214.487 450.333 214.152C450.542 213.98 450.754 213.806 450.918 213.594C451.1 213.357 451.421 213.184 451.704 213.09C451.853 213.04 451.998 212.973 452.142 212.906C452.426 212.775 452.708 212.644 453.025 212.644C453.337 212.644 453.654 212.752 453.968 212.858C454.151 212.92 454.332 212.982 454.51 213.021C454.689 213.061 455.217 213.116 455.358 212.994C455.656 212.735 455.933 212.388 456.101 212.031C456.344 211.515 455.881 211.061 455.488 210.738C455.074 210.397 454.701 210.224 454.173 210.11C453.872 210.044 453.628 210.138 453.372 210.292C453.254 210.363 453.201 210.548 453.149 210.726C453.116 210.839 453.085 210.95 453.037 211.025C452.738 211.505 452.352 211.465 451.84 211.307C451.742 211.277 451.646 211.246 451.55 211.214C451.361 211.152 451.172 211.09 450.976 211.041C450.824 211.003 450.652 211.093 450.498 211.174C450.44 211.205 450.384 211.234 450.333 211.254C449.947 211.409 449.859 211.842 449.783 212.214C449.769 212.286 449.754 212.356 449.739 212.421C449.684 212.646 449.59 212.881 449.497 213.093C449.421 213.266 449.283 213.38 449.142 213.497C449.084 213.545 449.026 213.593 448.971 213.647C448.806 213.807 448.607 213.94 448.414 214.064C448.208 214.197 448.144 214.462 448.09 214.688C448.086 214.702 448.083 214.716 448.08 214.73C448.075 214.748 448.071 214.767 448.066 214.786C447.948 215.277 447.769 216.023 447.121 215.807C446.886 215.729 446.814 215.348 446.767 215.098C446.763 215.077 446.759 215.058 446.755 215.039C446.687 214.693 446.687 214.354 446.687 214.003V214.002C446.687 213.806 446.729 213.617 446.771 213.427C446.811 213.246 446.851 213.065 446.854 212.879C446.859 212.604 446.677 212.449 446.488 212.288C446.422 212.232 446.355 212.175 446.294 212.112C446.002 211.805 445.683 211.573 445.362 211.34C445.142 211.18 444.921 211.02 444.707 210.834C444.471 210.629 443.606 210.012 443.373 210.478C443.084 211.056 443.42 211.589 443.989 211.839C444.596 212.107 445.282 212.484 445.706 213.003C445.985 213.344 445.71 213.774 445.506 214.091C445.479 214.133 445.454 214.172 445.431 214.21C445.425 214.219 445.42 214.228 445.414 214.238C445.247 214.511 444.912 215.062 444.543 214.98C444.292 214.925 444.236 214.129 444.236 213.925C444.236 213.881 444.239 213.839 444.241 213.8C444.249 213.637 444.255 213.517 444.091 213.418C443.835 213.262 443.601 213.081 443.365 212.9C443.321 212.866 443.278 212.832 443.234 212.799C443.176 212.755 443.081 212.657 442.963 212.535C442.475 212.032 441.589 211.118 441.297 211.907C441.123 212.376 440.62 212.414 440.152 212.449C439.979 212.461 439.811 212.474 439.666 212.508C439.341 212.583 438.783 212.976 438.614 213.288C438.55 213.404 438.432 213.517 438.312 213.632C438.15 213.787 437.984 213.945 437.945 214.12C437.935 214.168 437.94 214.222 437.945 214.277C437.952 214.35 437.959 214.423 437.93 214.482C437.866 214.61 437.724 214.732 437.596 214.843C437.541 214.891 437.487 214.937 437.444 214.98C437.403 215.021 437.368 215.069 437.332 215.117C437.288 215.176 437.244 215.235 437.19 215.28C437.069 215.383 436.826 215.443 436.633 215.491C436.576 215.505 436.523 215.518 436.478 215.531C436.072 215.649 435.612 215.719 435.188 215.708C434.639 215.693 434.073 214.997 434 214.494C433.934 214.042 433.95 213.485 434.046 213.037C434.052 213.007 434.06 212.97 434.068 212.929C434.123 212.643 434.224 212.128 434.433 212.019C434.948 211.75 435.62 211.724 436.248 211.7C436.51 211.69 436.764 211.681 436.995 211.654C437.037 211.649 437.077 211.645 437.116 211.64C437.524 211.597 437.827 211.565 437.967 211.084C438.006 210.949 438.027 210.812 438.047 210.674C438.073 210.499 438.1 210.323 438.165 210.15C438.229 209.981 438.302 209.814 438.375 209.648C438.455 209.463 438.536 209.279 438.604 209.091C438.639 208.997 438.686 208.91 438.75 208.831C438.854 208.704 438.852 208.528 438.85 208.357C438.849 208.277 438.848 208.198 438.858 208.126C438.922 207.653 439.206 207.369 439.526 207.05L439.536 207.04C439.635 206.94 439.735 206.837 439.837 206.732C440.394 206.155 440.992 205.536 441.755 205.322C441.994 205.255 442.253 205.252 442.514 205.248C442.796 205.244 443.079 205.24 443.339 205.155C443.917 204.966 444.497 204.847 445.083 204.726C445.311 204.679 445.541 204.631 445.771 204.58C445.934 204.543 446.064 204.455 446.197 204.366C446.242 204.336 446.287 204.305 446.335 204.276C446.456 204.202 446.584 204.144 446.712 204.086C446.827 204.033 446.943 203.981 447.052 203.917C447.435 203.695 447.837 203.312 448.012 202.896C448.066 202.766 448.074 202.595 448.081 202.429C448.085 202.319 448.09 202.212 448.108 202.119C448.159 201.853 448.148 201.57 448.092 201.306C448.053 201.117 448.093 200.921 448.134 200.724C448.162 200.585 448.191 200.445 448.191 200.309C448.191 199.827 448.193 199.387 448.47 198.972C448.506 198.918 448.566 198.847 448.635 198.765C448.873 198.482 449.215 198.077 449.021 197.827C448.627 197.321 447.968 197.051 447.427 197.447C447.344 197.507 447.228 197.576 447.099 197.651C446.758 197.852 446.334 198.101 446.242 198.378C446.207 198.481 446.174 198.584 446.141 198.686C446.061 198.936 445.981 199.185 445.883 199.436C445.777 199.709 445.836 200.01 445.895 200.305C445.929 200.478 445.963 200.649 445.963 200.81C445.963 201.169 445.931 201.43 445.774 201.767C445.708 201.911 445.66 202.062 445.613 202.213C445.553 202.404 445.493 202.595 445.394 202.772C444.999 203.477 444.46 203.392 443.766 203.218C443.731 203.209 443.694 203.201 443.656 203.192C443.516 203.16 443.368 203.126 443.259 203.063C443.21 203.035 443.161 203.002 443.113 202.969C442.981 202.878 442.845 202.785 442.677 202.785C442.35 202.785 442.447 203.074 442.518 203.288C442.542 203.36 442.564 203.424 442.565 203.466C442.584 203.942 442.419 204.153 441.971 204.276C441.576 204.385 441.131 203.86 441.117 203.496C441.117 203.492 441.117 203.487 441.117 203.482C441.109 203.294 441.103 203.139 441.287 203.035C441.438 202.951 441.8 202.632 441.389 202.589C441.218 202.533 441.071 202.45 440.938 202.376ZM458.124 211.308C458.091 211.098 458.055 210.877 458.118 210.707C458.164 210.583 458.325 210.525 458.471 210.472C458.544 210.445 458.614 210.42 458.663 210.388C458.781 210.312 458.897 210.229 459.013 210.147C459.249 209.978 459.486 209.809 459.749 209.692C460.012 209.575 460.361 209.57 460.458 209.871C460.581 210.254 460.434 210.382 460.238 210.552C460.176 210.607 460.108 210.665 460.043 210.738C459.96 210.83 459.84 211.341 459.975 211.418C460.252 211.577 460.489 211.763 460.736 211.956C460.778 211.989 460.82 212.023 460.863 212.056C461.523 212.569 461.615 213.501 461.615 214.272C461.615 214.332 461.617 214.4 461.619 214.474C461.632 215.072 461.655 216.042 460.922 216.042C460.618 216.042 460.088 215.994 459.957 215.639C459.909 215.51 459.838 215.379 459.766 215.247C459.634 215.002 459.499 214.751 459.499 214.494C459.499 214.08 459.272 213.837 459.034 213.582C458.878 213.415 458.717 213.242 458.61 213.012C458.547 212.876 458.523 212.733 458.499 212.593C458.476 212.458 458.453 212.325 458.397 212.198C458.376 212.151 458.347 212.099 458.316 212.044C458.243 211.913 458.162 211.767 458.162 211.641C458.162 211.541 458.143 211.426 458.124 211.308Z"
       fill="#00E425"
       id="path26" />
    <path
       d="M458.329 243.725C458.813 243.242 459.371 242.731 459.995 242.428C460.185 242.365 460.309 242.314 460.387 242.587C460.456 242.827 460.334 243.078 460.334 243.308C460.334 243.842 460.124 244.38 460.068 244.914C460.008 245.482 460.046 246.001 460.056 246.566C460.068 247.231 460.058 247.843 459.75 248.46C459.565 248.83 459.09 249.104 458.75 249.32C458.184 249.681 457.795 248.572 457.63 248.265C457.296 247.645 457.011 246.693 457.314 246.009C457.367 245.89 457.417 245.791 457.481 245.675C457.54 245.569 457.664 245.514 457.716 245.421C457.806 245.264 458.048 245.168 458.103 244.976C458.162 244.77 458.162 244.544 458.162 244.326V244.326C458.162 244.033 458.133 243.922 458.329 243.725Z"
       fill="#00E425"
       id="path28" />
    <path
       d="M499.394 210.973C499.292 211.165 499.202 211.105 499.047 211.251C498.88 211.335 499.092 211.662 499.158 211.777C499.248 211.935 499.381 211.975 499.548 211.975C499.971 211.975 500.312 211.827 500.523 211.446C500.738 211.06 500.249 210.694 499.91 210.694C499.668 210.694 499.509 210.755 499.394 210.973Z"
       fill="#00E425"
       id="path30" />
    <path
       d="M498.573 212.644C498.462 212.554 498.303 212.588 498.156 212.565C497.763 212.368 497.946 212.843 497.794 213.117C497.615 213.438 497.766 213.814 497.766 214.148C497.766 214.582 497.685 214.697 497.348 214.958C497.067 215.177 496.561 215.211 496.219 215.33C495.841 215.461 495.642 215.993 495.371 216.264C495.158 216.477 495.02 216.727 494.838 216.961C494.611 217.253 494.333 217.22 494.021 217.347C493.619 217.512 493.344 218.131 493.678 218.465C493.912 218.698 494.416 218.638 494.671 218.492C494.983 218.314 495.214 218.241 495.581 218.214C495.708 218.205 495.821 218.129 495.875 218.013C495.981 217.783 496.141 217.661 496.318 217.49C496.519 217.294 496.708 216.988 497.014 216.988C497.365 216.988 497.736 216.908 498.044 216.753C498.46 216.545 499.017 216.658 499.158 216.094C499.228 215.815 499.325 215.638 499.325 215.342C499.325 215.135 499.257 214.785 499.338 214.593C499.433 214.368 499.542 213.746 499.409 213.507C499.243 213.209 499.068 213.084 498.812 212.879C498.72 212.805 498.668 212.719 498.573 212.644Z"
       fill="#00E425"
       id="path32" />
    <path
       d="M479.747 230.333C479.889 230.443 480.025 230.657 480.202 230.744C480.493 230.89 480.444 230.988 480.567 231.249C480.719 231.571 480.939 231.876 481.099 232.195C481.183 232.364 481.32 232.465 481.458 232.598C481.644 232.777 481.897 233.053 482.114 233.186C482.367 233.34 482.278 233.865 482.334 234.117C482.404 234.434 482.337 234.851 482.337 235.175C482.337 235.319 482.558 235.353 482.643 235.457C482.746 235.583 482.854 235.809 482.922 235.958L482.923 235.961C483.13 236.416 483.32 236.835 483.117 237.292C483.007 237.539 482.392 237.468 482.225 237.32C481.867 237.002 481.467 236.766 481.291 236.274C481.176 235.951 481.157 235.409 481.291 235.092C481.431 234.759 481.51 234.582 481.322 234.256C481.175 234.002 480.903 233.683 480.697 233.477C480.559 233.339 480.346 233.294 480.195 233.17C479.765 232.818 479.312 232.352 479.019 231.892C478.837 231.605 478.698 231.062 478.855 230.716C478.965 230.476 478.902 229.821 479.354 230.079C479.48 230.151 479.63 230.242 479.747 230.333Z"
       fill="#00E425"
       id="path34" />
    <path
       d="M483.339 230.692C483.457 230.809 483.559 230.858 483.632 231.005C483.714 231.168 483.712 231.227 483.618 231.391C483.497 231.603 483.401 231.847 483.116 231.862C482.815 231.878 482.686 231.855 482.532 231.58C482.425 231.391 482.225 231.049 482.225 230.831C482.225 230.436 482.339 230.013 482.81 230.274C483.01 230.385 483.178 230.531 483.339 230.692Z"
       fill="#00E425"
       id="path36" />
    <path
       d="M485.929 233.083C485.41 233.199 484.756 233.116 484.639 233.715C484.414 233.834 484.644 234.217 484.719 234.368C484.838 234.605 484.939 234.995 484.955 235.259C484.961 235.365 485.125 235.477 485.177 235.568C485.267 235.724 485.321 235.918 485.456 236.039C485.774 236.323 486.237 236.15 486.595 236.15C486.865 236.15 487.184 236.012 487.43 235.9C487.762 235.749 488.105 235.712 488.325 235.37C488.52 235.066 488.693 234.75 488.885 234.448C489.086 234.133 488.965 233.501 488.965 233.13C488.965 232.449 489.002 231.773 488.965 231.081C488.947 230.737 488.513 230.406 488.297 230.19C488.097 229.99 487.701 230.061 487.684 230.357C487.671 230.575 487.506 230.838 487.458 231.053C487.36 231.494 487.146 231.733 486.901 232.115C486.659 232.493 486.4 232.979 485.929 233.083Z"
       fill="#00E425"
       id="path38" />
    <path
       d="M490.525 231.093C490.37 231.179 490.255 231.349 490.246 231.511C490.235 231.701 490.292 231.909 490.37 232.084C490.508 232.395 490.547 232.403 490.859 232.542C491.253 232.717 491.868 232.365 492.109 232.056C492.314 231.792 492.078 231.568 491.973 231.332C491.909 231.189 491.656 230.785 491.499 230.75C491.352 230.717 490.895 230.827 490.803 230.942C490.756 231 490.597 231.053 490.525 231.093Z"
       fill="#00E425"
       id="path40" />
    <path
       d="M490.552 235.875C489.678 235.681 489.276 236.343 489.076 237.097C489.076 237.374 489.092 237.634 489.2 237.877C489.286 238.072 489.599 238.601 489.828 238.601C490.23 238.601 490.311 238.48 490.605 238.239C490.766 238.107 490.883 237.945 491.069 237.822L491.075 237.818C491.285 237.678 491.469 237.555 491.583 237.32C491.765 236.945 491.638 236.582 491.304 236.386C491.042 236.231 490.876 235.947 490.552 235.875Z"
       fill="#00E425"
       id="path42" />
    <path
       d="M485.914 239.827C486.034 240.055 486.245 240.187 486.465 240.298C486.549 240.34 486.775 240.444 486.849 240.483C487.018 240.573 487.102 240.685 487.238 240.829C487.418 241.019 488.004 241.369 488.253 241.12C488.608 240.765 488.54 240.358 488.451 239.87C488.326 239.182 487.339 238.939 486.96 238.391C486.761 238.103 486.279 237.37 485.858 237.5C485.613 237.575 485.507 237.688 485.289 237.809C485.16 237.881 484.907 238.232 484.899 238.378C484.876 238.789 485.088 239.153 485.456 239.338C485.672 239.446 485.804 239.619 485.914 239.827Z"
       fill="#00E425"
       id="path44" />
    <path
       d="M493.824 236.596C494.001 236.932 494.377 237.285 494.76 237.362C494.783 237.562 494.983 237.431 495.176 237.431C495.352 237.431 495.578 237.322 495.733 237.236C496.055 237.058 496.553 237.004 496.875 237.165C497.472 237.464 496.931 238.386 496.931 238.855C496.931 239.511 496.963 240.263 497.515 240.693C497.952 241.033 498.402 241.007 498.824 240.606C498.99 240.449 499.173 240.247 499.282 240.049C499.464 239.722 499.599 239.889 499.839 239.981C500.137 240.096 500.212 240.375 500.356 240.634C500.494 240.882 500.533 240.91 500.805 240.832C501.362 240.673 501.312 239.866 501.272 239.409C501.225 238.861 500.862 238.387 500.551 237.945C500.358 237.67 500.061 237.31 499.719 237.267C499.437 237.232 499.182 237.099 498.908 237.038C498.571 236.963 498.094 236.536 497.977 236.218C497.793 235.724 496.839 235.76 496.374 235.76C495.783 235.76 495.198 235.858 494.622 235.649C494.393 235.565 494.254 235.317 494.006 235.262C493.914 235.242 493.399 235.239 493.369 235.346C493.251 235.759 493.648 236.262 493.824 236.596Z"
       fill="#00E425"
       id="path46" />
    <path
       d="M489.801 246.038C489.941 245.723 490.36 245.708 490.594 245.498C490.721 245.371 490.787 245.198 490.803 245.063C490.841 244.741 490.803 244.473 490.803 244.144C490.803 243.527 491.184 242.52 491.961 243.002C492.215 243.16 492.573 243.13 492.864 243.113C493.074 243.102 493.204 242.707 493.279 242.556C493.432 242.25 493.729 242.104 494.046 241.987C494.319 241.886 494.408 241.554 494.73 241.554C495.476 241.554 495.636 242.133 495.916 242.723C496.033 242.972 496.058 243.189 496.237 243.42C496.499 243.756 496.861 243.935 497.153 244.227C497.393 244.467 498.267 244.839 498.267 244.2C498.267 243.638 498.292 243.125 498.376 242.584C498.397 242.449 498.314 242.222 498.518 242.222C498.654 242.222 498.752 242.256 498.88 242.275C499.021 242.295 499.299 242.345 499.354 242.485C499.458 242.752 499.631 243.106 499.66 243.392C499.687 243.659 499.904 243.859 500.078 244.032C500.306 244.26 500.384 244.517 500.384 244.84C500.384 245.295 500.453 245.554 500.675 245.954C500.768 246.122 501.053 246.289 501.192 246.428C501.799 247.034 502.358 247.705 502.971 248.318C503.46 248.807 503.809 249.382 503.615 250.088C503.482 250.571 503.431 251.078 503.281 251.555C503.233 251.706 503.233 251.866 503.141 251.998C502.961 252.259 502.869 252.632 502.711 252.917C502.621 253.079 502.475 253.272 502.346 253.406C502.192 253.565 501.886 253.725 501.789 253.92C501.624 254.249 501.832 254.823 501.832 255.173C501.832 255.358 502.007 255.859 501.876 256.024C501.689 256.257 501.49 256.43 501.22 256.565C500.873 256.739 500.613 256.942 500.217 256.986C499.695 257.044 499.075 257.223 498.558 257.051C498.04 256.879 497.357 256.334 497.017 255.897C496.685 255.47 497.182 254.999 497.206 254.591C497.236 254.078 497.166 253.696 496.918 253.251C496.505 252.507 495.676 253.902 495.439 254.13C495.209 254.351 494.893 254.131 494.703 254.019C494.495 253.897 494.344 253.32 494.232 253.112C494.111 252.887 494.049 252.665 493.811 252.539C493.442 252.344 493.168 252.342 492.722 252.363C492.106 252.392 491.524 252.618 491.057 253C490.764 253.241 490.548 253.505 490.178 253.629C489.607 253.819 489.141 253.551 488.687 254.031L488.677 254.042C488.513 254.215 488.318 254.421 488.074 254.421C487.923 254.421 487.614 254.235 487.517 254.114C487.334 253.886 487.35 253.705 487.35 253.418C487.35 252.944 487.406 252.451 487.406 251.967C487.406 251.396 487.497 250.835 487.071 250.41C486.644 249.983 486.37 249.49 486.347 248.863C486.328 248.337 486.237 247.874 486.459 247.375C486.611 247.032 486.977 246.288 487.378 246.288C487.704 246.288 488.006 246.177 488.322 246.177C488.588 246.177 488.857 246.233 489.132 246.233C489.317 246.233 489.712 246.238 489.801 246.038Z"
       fill="#00E425"
       id="path48" />
    <path
       d="M500.05 259.433C500.315 259.464 500.316 259.823 500.607 259.823C500.895 259.823 501.011 259.52 501.275 259.489C501.531 259.459 501.721 259.156 501.721 258.932C501.721 258.646 501.689 258.454 501.566 258.208C501.414 257.903 501.193 257.929 500.885 257.929C500.383 257.929 499.802 258.267 499.771 258.821C499.76 259.024 499.796 259.403 500.05 259.433Z"
       fill="#00E425"
       id="path50" />
    <path
       d="M508.696 260.368C508.956 260.629 509.202 260.839 509.568 260.876C509.937 260.831 509.945 260.541 510.215 260.325C510.39 260.186 510.524 259.933 510.689 259.768C510.919 259.537 511.327 259.363 511.496 259.1C511.789 258.644 512.365 258.15 512.094 257.54C511.984 257.294 511.585 256.825 511.246 256.995C510.844 257.196 510.582 257.701 510.327 258.069C510.183 258.277 509.91 258.687 509.674 258.778C509.439 258.868 509.166 259.118 508.99 259.294C508.725 259.559 508.328 260 508.696 260.368Z"
       fill="#00E425"
       id="path52" />
    <path
       d="M512.917 256.76C513.194 256.76 513.327 256.856 513.585 256.872C514.052 256.872 514.36 256.223 514.155 255.813C514.041 255.586 513.886 255.32 513.613 255.259C513.411 255.214 513.146 255.075 512.945 255.231C512.579 255.516 512.22 255.952 512.363 256.451C512.435 256.703 512.673 256.76 512.917 256.76Z"
       fill="#00E425"
       id="path54" />
    <path
       d="M442.234 213.136C441.949 212.851 441.496 213.222 441.212 213.254C441.043 213.309 441.159 214.076 441.188 214.208C441.227 214.384 441.444 214.52 441.606 214.512C441.784 214.502 441.929 214.321 442.073 214.242C442.494 214.008 442.583 213.486 442.234 213.136Z"
       fill="#00E425"
       id="path56" />
  </mask>
  <g
     mask="url(#mask0_202_2)"
     id="g61"
     style="fill:#ffffff;fill-opacity:0.78406215">
    <circle
       cx="441"
       cy="224"
       r="50"
       fill="#000000"
       id="circle59"
       style="fill:#ffffff;fill-opacity:0.78406215" />
  </g>
</svg>
